<svg xmlns="http://www.w3.org/2000/svg" width="17.54" height="16.087" viewBox="0 0 17.54 16.087"><path d="M16.86,36.267V28.939l.358-2.233-2.595-3.439V22.236h.892V21.208H13.6v2.06L11,26.706l.358,2.233v1.642H10.332v-.789H9.3v.789H8.235v-.789H7.208v.789H6.18V28.939l.358-2.233L3.944,23.267V22.236h.892V21.208H2.916v2.06L.321,26.706.68,28.939v7.328H0v1.028H17.54V36.267Zm-.787-8.913-.165,1.03h-3.6l-.165-1.03Zm-3.5-1.028,1.535-2.034,1.535,2.034Zm3.257,3.085v6.855H12.388V29.412Zm-4.473,2.2v4.658H10.332v-1.64a1.562,1.562,0,1,0-3.125,0v1.64H6.18V31.609ZM9.3,36.267H8.235v-1.64a.535.535,0,0,1,1.069,0v1.64ZM1.631,28.385l-.165-1.03H5.393l-.165,1.03Zm.263-2.058L3.43,24.293l1.535,2.034Zm-.188,3.085H5.152v6.855H1.707Z" transform="translate(0 -21.208)"/><path d="M85.115,309.171H86.26v1.145H85.115Z" transform="translate(-82.22 -299.383)"/><path d="M85.115,382.317H86.26v1.145H85.115Z" transform="translate(-82.22 -370.042)"/><path d="M396.885,309.171h1.145v1.145h-1.145Z" transform="translate(-383.385 -299.383)"/><path d="M396.885,382.317h1.145v1.145h-1.145Z" transform="translate(-383.385 -370.042)"/></svg>