<svg xmlns="http://www.w3.org/2000/svg" viewBox="0 0 128.3044 105.684"><defs><style>.a{fill:#6bdcff;}.b{fill:#ffde0c;}.c{fill:#8427ca;}.d{fill:#00a900;}.e{fill:#f18d00;}.f{fill:#eb3577;}.g{fill:#fff;}</style></defs><path d="M479.5679,315.74v-6.7231a3.9049,3.9049,0,0,0-3.9005-3.9h-6.493l-.01-6.5193V288.2105a3.9049,3.9049,0,0,0-3.9005-3.9005H446.9636l4.5208-19.4616a5.3518,5.3518,0,1,0-6.7185-3.7983l-12.0613,8.4425-8.1875-15.9773a5.3481,5.3481,0,1,0-7.8,0L408.53,269.4926,396.4685,261.05a5.3473,5.3473,0,1,0-6.7184,3.7984l4.5208,19.4616H375.97a3.9049,3.9049,0,0,0-3.9,3.9v16.9058H365.567a3.9048,3.9048,0,0,0-3.9,3.9v6.5026h-1.3012a3.905,3.905,0,0,0-3.9,3.9v26.8759a3.9049,3.9049,0,0,0,3.9,3.9H480.8689a3.9048,3.9048,0,0,0,3.9005-3.9V322.4491A6.9407,6.9407,0,0,0,479.5679,315.74Z" transform="translate(-356.465 -244.5121)"/><path class="a" d="M411.4949,274.8709s-1.2461-.3333-1.8312-.4633H409.63a.4327.4327,0,0,1-.2451-.0834L397.0369,265.68l-1.2063.2127c-.889,13.174,6.4943,16.95,7.1493,17.6712l2.5019.7454h12.0649l1.0529-.8945a22.7379,22.7379,0,0,0-3.9789-5.1882A30.7814,30.7814,0,0,1,411.4949,274.8709Z" transform="translate(-356.465 -244.5121)"/><path class="b" d="M420.6172,247.6518a2.208,2.208,0,1,0,2.2081,2.208,2.208,2.208,0,0,0-2.2081-2.208h0" transform="translate(-356.465 -244.5121)"/><path class="b" d="M415.1992,266.9386a18.803,18.803,0,0,0,5.1146,7.2974c2.9526,3.3213,4.8118,4.73,6.0784,9.051l1.7528,1.0211h9.1591l1.0357-.5522a14.8345,14.8345,0,0,0-3.2337-10.77l-1.3077-.0275-1.9565,1.3695a.4358.4358,0,0,1-.6069-.1071h0a.4422.4422,0,0,1-.0308-.05l-10.2009-19.9073a.4345.4345,0,0,0-.7734,0l-4.93,9.6219Z" transform="translate(-356.465 -244.5121)"/><path class="c" d="M449.945,257.5177a2.208,2.208,0,1,0,2.208,2.208h0a2.208,2.208,0,0,0-2.208-2.208" transform="translate(-356.465 -244.5121)"/><path class="c" d="M447.487,263.3764l-6.3663,4.4559-.1542,1.1582a17.72,17.72,0,0,1,3.6235,7.6379l.7686-.7456,2.8-12.052a.434.434,0,0,0-.6715-.4542" transform="translate(-356.465 -244.5121)"/><path class="d" d="M391.29,257.5177a2.208,2.208,0,1,0,2.208,2.208,2.2079,2.2079,0,0,0-2.208-2.208h0" transform="translate(-356.465 -244.5121)"/><path class="d" d="M403.5292,282.1682c-4.39-4.6066-7.6334-9.2163-6.4923-16.4882l-3.2894-2.3038a.4348.4348,0,0,0-.6725.4552l4.6787,20.14a.4354.4354,0,0,0,.4232.3386h7.3049c-.654-.72-1.309-1.4323-1.9526-2.1418" transform="translate(-356.465 -244.5121)"/><path class="e" d="M441.1207,267.8323l-7.3223,5.1257a18.34,18.34,0,0,1,3.5057,11.35h5.7528a.4342.4342,0,0,0,.4233-.3357l1.8784-8.09a20.4676,20.4676,0,0,0-4.2379-8.05" transform="translate(-356.465 -244.5121)"/><path class="f" d="M421.5137,273.3418a30.1419,30.1419,0,0,1-6.2142-9.4573L410.0286,274.17a.43.43,0,0,1-.3707.2358,42.92,42.92,0,0,0,2.78,3.3492,43.5235,43.5235,0,0,1,5.1092,6.554H428.145c-1.2677-4.3213-3.6787-7.6447-6.6313-10.967" transform="translate(-356.465 -244.5121)"/><path d="M469.1648,309.0166a.4393.4393,0,0,1,.4327-.4328h6.07a.4328.4328,0,0,1,.4328.4328v6.07a.4328.4328,0,0,1-.4325.4328h-6.07a.44.44,0,0,1-.4325-.4328Z" transform="translate(-356.465 -244.5121)"/><path d="M458.7618,294.28v-6.07a.4328.4328,0,0,1,.4327-.4328h6.07a.4328.4328,0,0,1,.4328.4328v6.07a.4328.4328,0,0,1-.4328.4328h-6.07a.4328.4328,0,0,1-.4327-.4328Z" transform="translate(-356.465 -244.5121)"/><path d="M454.8613,287.7777a.4328.4328,0,0,1,.4328.4327v6.07a.4328.4328,0,0,1-.4328.4328h-9.5376a.4328.4328,0,0,0-.4327.4327v19.9407a.4327.4327,0,0,1-.4327.4327h-6.07a.4327.4327,0,0,1-.4327-.4327V295.1458a.4328.4328,0,0,0-.4328-.4328h-.745a.5487.5487,0,0,1-.5446-.5167,5.4728,5.4728,0,0,0-2.8406-4.6848c1.0142,1.2976,1.0953,3.7446,1.0953,5.2015h0l0,1.9a3.325,3.325,0,0,1-2.3334,3.1736l-1.4.4368a1.452,1.452,0,0,0-.9885,1.6822,1.4917,1.4917,0,0,0,.93,1.0684l1.6891.667a3.326,3.326,0,0,1,2.104,3.0919v8.3534a.4327.4327,0,0,1-.4327.4327h-6.07a.4328.4328,0,0,1-.4327-.4328v-9.1048a.8655.8655,0,0,0-.8655-.8655h-1.7366a.8657.8657,0,0,0-.8656.8656v9.1047a.4328.4328,0,0,1-.4328.4328h-6.07a.4328.4328,0,0,1-.4328-.4328h0V288.2105a.4328.4328,0,0,1,.4328-.4328Z" transform="translate(-356.465 -244.5121)"/><path d="M405.8809,305.1161h-1.7365a.8656.8656,0,0,0-.8656.8656v9.1041a.4328.4328,0,0,1-.4327.4328l-6.07,0h0a.4327.4327,0,0,1-.4327-.4327V291.24a3.4622,3.4622,0,0,1,3.4623-3.4622H410.22a3.4622,3.4622,0,0,1,3.4623,3.4622v23.8465a.4328.4328,0,0,1-.4328.4328h-6.07a.4328.4328,0,0,1-.4327-.4328v-9.1047A.8656.8656,0,0,0,405.8809,305.1161Z" transform="translate(-356.465 -244.5121)"/><path d="M375.5373,288.21a.4327.4327,0,0,1,.4327-.4327h13.4435a3.4621,3.4621,0,0,1,3.4622,3.4622h0v10.414a3.4622,3.4622,0,0,1-3.4622,3.4622h-6.9408v9.97a.4328.4328,0,0,1-.4327.4328l-6.07,0a.4328.4328,0,0,1-.4328-.4328Z" transform="translate(-356.465 -244.5121)"/><path d="M392.8757,309.0166v6.07h0a.4328.4328,0,0,1-.4328.4328h-6.07a.4328.4328,0,0,1-.4325-.4328v-6.07a.4328.4328,0,0,1,.4327-.4328h6.07A.4328.4328,0,0,1,392.8757,309.0166Z" transform="translate(-356.465 -244.5121)"/><path d="M365.1343,309.0166a.4328.4328,0,0,1,.4327-.4328h6.07a.4328.4328,0,0,1,.4328.4328v6.07a.4328.4328,0,0,1-.4328.4328h-6.07a.4328.4328,0,0,1-.4327-.4328Z" transform="translate(-356.465 -244.5121)"/><path d="M377.2712,344.9972v1.2984a.4328.4328,0,0,1-.4328.4328h-6.07a.4328.4328,0,0,1-.4327-.4328v-9.1047a.8656.8656,0,0,0-.8656-.8656h-1.7365a.8656.8656,0,0,0-.8656.8656v9.1042a.4327.4327,0,0,1-.4327.4327l-6.07,0h0a.4327.4327,0,0,1-.4327-.4327V319.42a.4328.4328,0,0,1,.4327-.4328h6.07a.4328.4328,0,0,1,.4328.4328v9.1047a.8657.8657,0,0,0,.8656.8656H369.47a.8657.8657,0,0,0,.8656-.8656V319.42a.4328.4328,0,0,1,.4327-.4328h6.07a.4328.4328,0,0,1,.4328.4328l-.0006,8.4027a3.3251,3.3251,0,0,1-2.3335,3.1736l-1.4.4368a1.4519,1.4519,0,0,0-.9885,1.682,1.4912,1.4912,0,0,0,.9295,1.0685l1.6893.6671a3.3257,3.3257,0,0,1,2.104,3.0918Z" transform="translate(-356.465 -244.5121)"/><path d="M398.0773,344.9972a1.7311,1.7311,0,0,1-1.7311,1.7311H382.47a1.7311,1.7311,0,0,1-1.7312-1.7311V319.42a.4328.4328,0,0,1,.4327-.4328h6.07a.4327.4327,0,0,1,.4325.4328v19.5077a.8656.8656,0,0,0,.8656.8656h1.7365a.8656.8656,0,0,0,.8656-.8656V319.42a.4329.4329,0,0,1,.4327-.4328l6.07,0a.4328.4328,0,0,1,.4328.4328Z" transform="translate(-356.465 -244.5121)"/><path d="M418.8834,343.2662v3.0294a.4328.4328,0,0,1-.4328.4328h-6.07a.4328.4328,0,0,1-.4327-.4328V326.7878a.8656.8656,0,0,0-.8656-.8656h-1.7365a.8657.8657,0,0,0-.8656.8656V346.295a.4328.4328,0,0,1-.4327.4328l-6.07,0h0a.4327.4327,0,0,1-.4327-.4327V319.42a.4327.4327,0,0,1,.4327-.4328h13.4435a3.4622,3.4622,0,0,1,3.4622,3.4622Z" transform="translate(-356.465 -244.5121)"/><path d="M439.69,319.42v6.07a.4328.4328,0,0,1-.4328.4328h-8.2391a1.7312,1.7312,0,0,0-1.7312,1.7311v11.2742a.8656.8656,0,0,0,.8656.8655h1.7365a.8655.8655,0,0,0,.8656-.8655v-9.1042a.4328.4328,0,0,1,.4327-.4328l6.07-.0006a.4328.4328,0,0,1,.4328.4328v16.4729h0a.4328.4328,0,0,1-.4328.4328H425.8133a3.4622,3.4622,0,0,1-3.4622-3.4622V322.4491a3.4622,3.4622,0,0,1,3.4622-3.4622h13.4434a.4328.4328,0,0,1,.4328.4327Z" transform="translate(-356.465 -244.5121)"/><path d="M462.23,324.9964a6.92,6.92,0,0,1-1.7339.7082c-.0224.0057-.0453.01-.0678.0156a6.9786,6.9786,0,0,1-1.666.202h0v0h-7.8039a.8655.8655,0,0,0-.8653.8655v1.7366a.8655.8655,0,0,0,.8656.8655h9.1046a.4328.4328,0,0,1,.4328.4328v6.07a.4328.4328,0,0,1-.4328.4328h-9.1046a.8655.8655,0,0,0-.8656.8656v1.7365a.8655.8655,0,0,0,.8656.8656h9.1046a.4328.4328,0,0,1,.4328.4328v6.07h0a.4328.4328,0,0,1-.4328.4328H443.59a.4328.4328,0,0,1-.4327-.4328V319.42a.4328.4328,0,0,1,.4327-.4328H458.329a.4328.4328,0,0,0,.4328-.4328v-2.602a.4328.4328,0,0,0-.4328-.4328l-6.5079,0-.01,0a3.462,3.462,0,0,1-3.452-3.4617V298.6136a.4327.4327,0,0,1,.4327-.4327h6.0632a.4327.4327,0,0,1,.4327.4327v9.1048a.8656.8656,0,0,0,.8656.8655H457.89a.8655.8655,0,0,0,.8655-.8655v-9.1048a.4328.4328,0,0,1,.4329-.4327h6.0771a.4327.4327,0,0,1,.4327.4321l.028,20.3739h0a6.97,6.97,0,0,1-3.4962,6.01Z" transform="translate(-356.465 -244.5121)"/><path d="M481.3017,346.2956a.4328.4328,0,0,1-.4328.4328h-6.07a.4328.4328,0,0,1-.4327-.4328V326.7878a.8657.8657,0,0,0-.8657-.8656h-1.7364a.8656.8656,0,0,0-.8656.8656V346.295a.4328.4328,0,0,1-.4327.4328l-6.07,0h0a.4327.4327,0,0,1-.4327-.4327V327.9915a10.4435,10.4435,0,0,0,5.23-8.99v-.0143H477.84a3.4622,3.4622,0,0,1,3.4622,3.4622Z" transform="translate(-356.465 -244.5121)"/><path class="e" d="M386.3729,315.5192h6.07a.4328.4328,0,0,0,.4328-.4328h0v-6.07a.4328.4328,0,0,0-.4328-.4328h-6.07a.4328.4328,0,0,0-.4327.4328v6.07A.4328.4328,0,0,0,386.3729,315.5192Z" transform="translate(-356.465 -244.5121)"/><polygon class="e" points="29.908 71.007 29.908 71.007 30.777 71.007 30.776 71.007 29.908 71.007"/><path class="c" d="M372.07,315.0864v-6.07a.4328.4328,0,0,0-.4328-.4328h-6.07a.4328.4328,0,0,0-.4328.4328v6.07a.4328.4328,0,0,0,.4328.4328h6.07A.4328.4328,0,0,0,372.07,315.0864Z" transform="translate(-356.465 -244.5121)"/><path class="f" d="M469.5974,315.5192h6.07a.4328.4328,0,0,0,.4326-.4328v-6.07a.4328.4328,0,0,0-.4328-.4328h-6.07a.4318.4318,0,0,0-.418.3264l.0086,6.3106A.4314.4314,0,0,0,469.5974,315.5192Z" transform="translate(-356.465 -244.5121)"/><path class="a" d="M458.7618,294.28a.4328.4328,0,0,0,.4327.4328h6.07a.4328.4328,0,0,0,.4328-.4328v-6.07a.4328.4328,0,0,0-.4328-.4328h-6.07a.4328.4328,0,0,0-.4327.4328v6.07Z" transform="translate(-356.465 -244.5121)"/><circle class="g" cx="48.5476" cy="51.9348" r="1.7338"/><circle class="g" cx="27.7415" cy="51.9348" r="1.7338"/><circle class="g" cx="69.3537" cy="51.9348" r="1.7338"/><path class="g" d="M397.6444,318.9869l-6.07,0a.4328.4328,0,0,0-.4328.4328v19.5072a.8657.8657,0,0,1-.8656.8656H388.54a.8656.8656,0,0,1-.8655-.8656V319.42a.4328.4328,0,0,0-.4326-.4328h-6.07a.4328.4328,0,0,0-.4328.4328v25.5775a1.7311,1.7311,0,0,0,1.7311,1.7311h13.8762a1.7311,1.7311,0,0,0,1.7312-1.7311V319.42A.4328.4328,0,0,0,397.6444,318.9869Zm17.7768,0H401.9777a.4328.4328,0,0,0-.4328.4328v26.8759a.4328.4328,0,0,0,.4328.4327h0l6.07,0a.4328.4328,0,0,0,.4327-.4328V326.7878a.8656.8656,0,0,1,.8656-.8656h1.7365a.8655.8655,0,0,1,.8656.8656v19.5078a.4328.4328,0,0,0,.4327.4328h6.07a.4328.4328,0,0,0,.4328-.4328V322.4491A3.4622,3.4622,0,0,0,415.4212,318.9869Zm62.4183,0h-8.6461v.0143a10.4435,10.4435,0,0,1-5.23,8.99v18.3041a.4328.4328,0,0,0,.4328.4327h0l6.07,0a.4328.4328,0,0,0,.4327-.4328V326.7878a.8656.8656,0,0,1,.8656-.8656h1.7366a.8655.8655,0,0,1,.8655.8656v19.5078a.4328.4328,0,0,0,.4328.4328h6.07a.4328.4328,0,0,0,.4328-.4328V322.4491A3.4622,3.4622,0,0,0,477.84,318.9869Zm-38.5828,0H425.8133a3.4622,3.4622,0,0,0-3.4623,3.4622v20.8171a3.4622,3.4622,0,0,0,3.4623,3.4622h13.4434a.4328.4328,0,0,0,.4328-.4328V329.8227a.4328.4328,0,0,0-.4328-.4328l-6.07.0006a.4328.4328,0,0,0-.4327.4328v9.1042a.8655.8655,0,0,1-.8655.8655H430.152a.8656.8656,0,0,1-.8656-.8655V327.6534a1.7311,1.7311,0,0,1,1.7311-1.7312h8.2392a.4328.4328,0,0,0,.4328-.4328v-6.07A.4328.4328,0,0,0,439.2567,318.9869Zm-42.4805-3.4678h0l6.07,0a.4328.4328,0,0,0,.4328-.4328v-9.1041a.8655.8655,0,0,1,.8656-.8656h1.7365a.8655.8655,0,0,1,.8656.8656v9.1047a.4328.4328,0,0,0,.4328.4327h6.07a.4327.4327,0,0,0,.4328-.4327V291.24a3.4622,3.4622,0,0,0-3.4622-3.4622h-10.414a3.4622,3.4622,0,0,0-3.4622,3.4622v23.8464A.4328.4328,0,0,0,396.7762,315.5191Zm-20.8061,0,6.07,0a.4329.4329,0,0,0,.4328-.4328v-9.97h6.9408a3.4622,3.4622,0,0,0,3.4622-3.4623V291.24a3.4622,3.4622,0,0,0-3.4622-3.4623H375.97a.4328.4328,0,0,0-.4328.4328v26.8759A.4328.4328,0,0,0,375.97,315.5191Zm89.7556,3.4678h0l-.028-20.3739a.4328.4328,0,0,0-.4328-.4322h-6.0771a.4328.4328,0,0,0-.4327.4328v9.1048a.8656.8656,0,0,1-.8656.8655h-1.7366a.8655.8655,0,0,1-.8655-.8655v-9.1048a.4328.4328,0,0,0-.4328-.4328h-6.0631a.4328.4328,0,0,0-.4328.4328v13.4439a3.462,3.462,0,0,0,3.452,3.4617l.01,0,6.5078,0a.4328.4328,0,0,1,.4328.4328v2.602a.4328.4328,0,0,1-.4327.4328H443.59a.4327.4327,0,0,0-.4327.4328v26.8759a.4328.4328,0,0,0,.4327.4328h16.4729a.4328.4328,0,0,0,.4328-.4328v-6.07a.4328.4328,0,0,0-.4328-.4327h-9.1047a.8657.8657,0,0,1-.8656-.8656v-1.7366a.8656.8656,0,0,1,.8656-.8655h9.1047a.4328.4328,0,0,0,.4328-.4328v-6.07a.4328.4328,0,0,0-.4328-.4328h-9.1047a.8656.8656,0,0,1-.8656-.8655v-1.7366a.8655.8655,0,0,1,.8653-.8655h7.8039v0h0a6.9792,6.9792,0,0,0,1.666-.202c.0225-.0056.0454-.01.0678-.0156a6.9158,6.9158,0,0,0,1.7338-.7082,6.97,6.97,0,0,0,3.4963-6.01Zm-48.1434-3.4677h6.07a.4328.4328,0,0,0,.4328-.4328v-9.1047a.8655.8655,0,0,1,.8656-.8656h1.7366a.8655.8655,0,0,1,.8655.8656v9.1048a.4327.4327,0,0,0,.4327.4327h6.07a.4326.4326,0,0,0,.4326-.4327v-8.3534a3.3257,3.3257,0,0,0-2.1039-3.0919l-1.6892-.667a1.4915,1.4915,0,0,1-.93-1.0685,1.452,1.452,0,0,1,.9885-1.6821l1.4-.4368a3.325,3.325,0,0,0,2.3334-3.1736l0-1.9h0c0-1.4569-.081-3.9039-1.0952-5.2015a5.4726,5.4726,0,0,1,2.8405,4.6826.551.551,0,0,0,.5469.5189h.7427a.4327.4327,0,0,1,.4328.4327v19.9407a.4328.4328,0,0,0,.4328.4327h6.07a.4327.4327,0,0,0,.4327-.4327V295.1458a.4328.4328,0,0,1,.4328-.4327h9.5375a.4328.4328,0,0,0,.4328-.4328v-6.07a.4328.4328,0,0,0-.4328-.4328l-37.279,0a.4328.4328,0,0,0-.4328.4328v26.8759A.4328.4328,0,0,0,417.5823,315.5192Zm-44.0455,15.9136,1.4-.4368a3.325,3.325,0,0,0,2.3334-3.1736l.0006-8.4027a.4328.4328,0,0,0-.4328-.4328h-6.07a.4328.4328,0,0,0-.4328.4328v9.1047a.8655.8655,0,0,1-.8656.8655h-1.7365a.8655.8655,0,0,1-.8656-.8655V319.42a.4328.4328,0,0,0-.4328-.4328h-6.07a.4328.4328,0,0,0-.4328.4328v26.8759a.4328.4328,0,0,0,.4328.4327h0l6.07,0a.4328.4328,0,0,0,.4328-.4327v-9.1042a.8655.8655,0,0,1,.8656-.8656H369.47a.8655.8655,0,0,1,.8656.8656v9.1047a.4328.4328,0,0,0,.4328.4328h6.07a.4328.4328,0,0,0,.4327-.4328v-8.3534a3.3258,3.3258,0,0,0-2.1039-3.0919l-1.6893-.667a1.4914,1.4914,0,0,1-.9295-1.0685A1.4519,1.4519,0,0,1,373.5368,331.4328Z" transform="translate(-356.465 -244.5121)"/><circle cx="69.3537" cy="51.9348" r="1.7338"/><circle cx="27.7415" cy="51.9348" r="1.7338"/><circle cx="48.5476" cy="51.9348" r="1.7338"/></svg>