<svg id="b1937aae-23ca-4285-a29d-3381bbd47693" data-name="Layer 1" xmlns="http://www.w3.org/2000/svg" viewBox="0 0 448 512"><path id="b75f498b-c223-4260-85a7-1e893995b4b3" data-name="bars" d="M432,400H16c-8.844,0-16,7.156-16,15.1S7.156,432,16,432H432c8.844,0,16-7.156,16-15.1S440.8,400,432,400ZM16,272H281.85c8.844,0,16-7.156,16-15.1s-7.2-16.9-16-16.9H16c-8.844,0-16,7.16-16,15.1S7.156,272,16,272Zm0-160H432c8.844,0,16-7.156,16-15.1S440.8,80,432,80H16C7.156,80,0,87.16,0,95.1S7.156,112,16,112Z"/></svg>