<svg id="e5805587-3b97-40c6-bc2b-67f2f2c2949e" data-name="Layer 1" xmlns="http://www.w3.org/2000/svg" viewBox="0 0 510.212 512"><g id="a63e6945-aa30-467a-9dd5-fab4c9109816" data-name="cart"><path id="e2226838-d6f4-493b-b942-d06f4c1648d7" data-name="bag" d="M506.279,170.491a16.192,16.192,0,0,0-12.26-5.615H366.911v-52.95a111.435,111.435,0,0,0-222.87.045v52.905H17.584A16.194,16.194,0,0,0,1.565,183.439L38.979,436.355A87.984,87.984,0,0,0,126,511.465H385.569A88.006,88.006,0,0,0,472.6,436.357L510.037,183.44A16.188,16.188,0,0,0,506.279,170.491ZM176.427,112.019a79.049,79.049,0,1,1,158.1-.048v52.905h-158.1ZM440.566,431.611a55.62,55.62,0,0,1-55,47.468H126a55.6,55.6,0,0,1-54.984-47.463L36.348,197.262H475.253Z" style="fill:#000000"/></g></svg>