<svg xmlns="http://www.w3.org/2000/svg" viewBox="0 0 577.301 577.301"><path d="M529.574,80.681A161.894,161.894,0,0,0,414.549,32.957h0a162.357,162.357,0,0,0-125.89,59.772A162.675,162.675,0,0,0,61.692,68.109,162.669,162.669,0,0,0,0,195.721c0,43.88,23.229,89.994,42.715,120.951C83.333,381.2,151.331,451.59,244.821,525.881a72.285,72.285,0,0,0,43.607,18.459l.477,0,.058,0A70.13,70.13,0,0,0,331.886,526.3C545.427,356.511,577.3,246.3,577.3,195.7A161.888,161.888,0,0,0,529.574,80.681ZM541.96,195.72c0,109.4-176.027,258.3-231.361,302.37l-.117-.029-.792.758A37.777,37.777,0,0,1,288.794,509a38.967,38.967,0,0,1-21.782-10.612l-.15-.13c-29.242-23.238-85.838-70.568-136.33-126.468-63.164-69.928-95.19-129.167-95.19-176.073A127.345,127.345,0,0,1,162.6,68.282h.091a127.6,127.6,0,0,1,110.628,64.27,17.678,17.678,0,0,0,30.674,0A127.345,127.345,0,0,1,541.96,195.72Z"/></svg>